HIERARCHY
ROOT Haolin_28_06:Solving:Hips
{
	OFFSET 0.000000 0.000000 0.000000
	CHANNELS 6 Xposition Yposition Zposition Xrotation Yrotation Zrotation
	JOINT Haolin_28_06:Solving:Spine
	{
		OFFSET 0.000000 -12.181966 2.015561
		CHANNELS 6 Xposition Yposition Zposition Xrotation Yrotation Zrotation
		JOINT Haolin_28_06:Solving:Spine1
		{
			OFFSET 0.000000 -8.890296 1.567602
			CHANNELS 6 Xposition Yposition Zposition Xrotation Yrotation Zrotation
			JOINT Haolin_28_06:Solving:Spine2
			{
				OFFSET 0.000000 -8.993092 0.786796
				CHANNELS 6 Xposition Yposition Zposition Xrotation Yrotation Zrotation
				JOINT Haolin_28_06:Solving:Spine3
				{
					OFFSET 0.000000 -9.027443 0.000000
					CHANNELS 6 Xposition Yposition Zposition Xrotation Yrotation Zrotation
					JOINT Haolin_28_06:Solving:Neck
					{
						OFFSET 0.000000 -11.606712 -1.160669
						CHANNELS 6 Xposition Yposition Zposition Xrotation Yrotation Zrotation
						JOINT Haolin_28_06:Solving:Neck1
						{
							OFFSET 0.000000 -7.471592 -0.653680
							CHANNELS 6 Xposition Yposition Zposition Xrotation Yrotation Zrotation
							JOINT Haolin_28_06:Solving:Head
							{
								OFFSET 0.000000 -7.386181 -1.302382
								CHANNELS 6 Xposition Yposition Zposition Xrotation Yrotation Zrotation
								JOINT Haolin_28_06:Solving:HeadEnd
								{
									OFFSET 0.000000 -9.728081 0.000002
									CHANNELS 6 Xposition Yposition Zposition Xrotation Yrotation Zrotation
									End Site
									{
										OFFSET 0.000000 -9.728081 0.000002
									}
								}
							}
						}
					}
					JOINT Haolin_28_06:Solving:RightShoulder
					{
						OFFSET 0.000000 -8.290508 -5.270916
						CHANNELS 6 Xposition Yposition Zposition Xrotation Yrotation Zrotation
						JOINT Haolin_28_06:Solving:RightArm
						{
							OFFSET -19.261074 -0.000008 0.000000
							CHANNELS 6 Xposition Yposition Zposition Xrotation Yrotation Zrotation
							JOINT Haolin_28_06:Solving:RightForeArm
							{
								OFFSET -30.691700 -0.000011 0.000000
								CHANNELS 6 Xposition Yposition Zposition Xrotation Yrotation Zrotation
								JOINT Haolin_28_06:Solving:RightHand
								{
									OFFSET -20.216934 -0.000008 0.000000
									CHANNELS 6 Xposition Yposition Zposition Xrotation Yrotation Zrotation
									JOINT Haolin_28_06:Solving:RightHandThumb1
									{
										OFFSET -4.948814 2.881329 -3.679893
										CHANNELS 6 Xposition Yposition Zposition Xrotation Yrotation Zrotation
										End Site
										{
											OFFSET -7.039886 -0.000004 -7.104978
										}
									}
									JOINT Haolin_28_06:Solving:RightHandMiddle1
									{
										OFFSET -13.196846 -0.000004 0.084595
										CHANNELS 6 Xposition Yposition Zposition Xrotation Yrotation Zrotation
										End Site
										{
											OFFSET -10.002037 -0.000004 0.000000
										}
									}
								}
							}
						}
					}
					JOINT Haolin_28_06:Solving:LeftShoulder
					{
						OFFSET 0.000000 -8.290508 -5.270916
						CHANNELS 6 Xposition Yposition Zposition Xrotation Yrotation Zrotation
						JOINT Haolin_28_06:Solving:LeftArm
						{
							OFFSET 19.261074 -0.000008 0.000000
							CHANNELS 6 Xposition Yposition Zposition Xrotation Yrotation Zrotation
							JOINT Haolin_28_06:Solving:LeftForeArm
							{
								OFFSET 30.691700 -0.000011 0.000000
								CHANNELS 6 Xposition Yposition Zposition Xrotation Yrotation Zrotation
								JOINT Haolin_28_06:Solving:LeftHand
								{
									OFFSET 20.216934 -0.000008 0.000000
									CHANNELS 6 Xposition Yposition Zposition Xrotation Yrotation Zrotation
									JOINT Haolin_28_06:Solving:LeftHandThumb1
									{
										OFFSET 4.948814 2.881329 -3.679893
										CHANNELS 6 Xposition Yposition Zposition Xrotation Yrotation Zrotation
										End Site
										{
											OFFSET 7.039886 -0.000004 -7.104978
										}
									}
									JOINT Haolin_28_06:Solving:LeftHandMiddle1
									{
										OFFSET 13.196846 -0.000004 0.084595
										CHANNELS 6 Xposition Yposition Zposition Xrotation Yrotation Zrotation
										End Site
										{
											OFFSET 10.002037 -0.000004 0.000000
										}
									}
								}
							}
						}
					}
				}
			}
		}
	}
	JOINT Haolin_28_06:Solving:RightUpLeg
	{
		OFFSET -10.083070 0.000000 0.000000
		CHANNELS 6 Xposition Yposition Zposition Xrotation Yrotation Zrotation
		JOINT Haolin_28_06:Solving:RightLeg
		{
			OFFSET 0.000000 47.042522 -0.000008
			CHANNELS 6 Xposition Yposition Zposition Xrotation Yrotation Zrotation
			JOINT Haolin_28_06:Solving:RightFoot
			{
				OFFSET 0.000000 38.766415 -0.000006
				CHANNELS 6 Xposition Yposition Zposition Xrotation Yrotation Zrotation
				JOINT Haolin_28_06:Solving:RightForeFoot
				{
					OFFSET 0.000000 3.531212 -0.000000
					CHANNELS 6 Xposition Yposition Zposition Xrotation Yrotation Zrotation
					JOINT Haolin_28_06:Solving:RightToeBase
					{
						OFFSET 0.000000 0.000000 -13.829352
						CHANNELS 6 Xposition Yposition Zposition Xrotation Yrotation Zrotation
						JOINT Haolin_28_06:Solving:RightToeBaseEnd
						{
							OFFSET 0.000000 0.000000 -4.034167
							CHANNELS 6 Xposition Yposition Zposition Xrotation Yrotation Zrotation
							End Site
							{
								OFFSET 0.000000 -4.034164 0.000004
							}
						}
					}
				}
			}
		}
	}
	JOINT Haolin_28_06:Solving:LeftUpLeg
	{
		OFFSET 10.083070 0.000000 0.000000
		CHANNELS 6 Xposition Yposition Zposition Xrotation Yrotation Zrotation
		JOINT Haolin_28_06:Solving:LeftLeg
		{
			OFFSET 0.000000 47.042522 -0.000008
			CHANNELS 6 Xposition Yposition Zposition Xrotation Yrotation Zrotation
			JOINT Haolin_28_06:Solving:LeftFoot
			{
				OFFSET 0.000000 38.766415 -0.000006
				CHANNELS 6 Xposition Yposition Zposition Xrotation Yrotation Zrotation
				JOINT Haolin_28_06:Solving:LeftForeFoot
				{
					OFFSET 0.000000 3.531212 -0.000000
					CHANNELS 6 Xposition Yposition Zposition Xrotation Yrotation Zrotation
					JOINT Haolin_28_06:Solving:LeftToeBase
					{
						OFFSET 0.000000 0.000000 -13.829352
						CHANNELS 6 Xposition Yposition Zposition Xrotation Yrotation Zrotation
						JOINT Haolin_28_06:Solving:LeftToeBaseEnd
						{
							OFFSET 0.000000 0.000000 -4.855067
							CHANNELS 6 Xposition Yposition Zposition Xrotation Yrotation Zrotation
							End Site
							{
								OFFSET 0.000000 -4.855064 0.000004
							}
						}
					}
				}
			}
		}
	}
}
MOTION
Frames: 4
Frame Time: 0.041667
-4.286569 22.283710 -93.939491 79.156421 -2.265177 -2.709184 -0.000002 -12.181944 2.015563 15.918996 -0.441464 -2.765300 -0.000001 -8.890304 1.567597 -0.100286 0.006818 -0.459699 0.000001 -8.993095 0.786800 -1.063337 -1.172840 0.539395 -0.000001 -9.027429 0.000001 1.161840 -1.275865 3.291109 -0.000000 -11.606668 -1.160664 -5.197435 -0.241504 -0.114592 -0.000000 -7.471590 -0.653682 -0.880563 -5.366498 -1.346104 0.000000 -7.386184 -1.302373 4.889394 -0.237552 -1.083626 -0.000000 -9.728096 -0.000002 0.000000 -0.000001 -0.000000 -0.000002 -8.290447 -5.270920 -0.000010 20.553644 7.249940 -19.261074 -0.000031 -0.000001 -0.200507 -55.675194 -78.003711 -30.691698 -0.000015 -0.000013 -17.537510 -16.297608 -5.067917 -20.216930 -0.000013 0.000006 -1.534284 -10.918734 -8.048682 -4.948798 2.881324 -3.679873 0.000000 -0.000003 0.000001 -13.196868 -0.000007 0.084609 -0.000002 -0.000001 0.000002 -0.000001 -8.290462 -5.270916 -0.000008 -12.528981 -6.830271 19.261072 0.000004 0.000005 -4.090897 43.383739 79.089458 30.691675 -0.000016 -0.000003 0.199129 28.796399 -0.095912 20.216911 -0.000025 0.000005 -0.476817 5.719530 4.773567 4.948790 2.881328 -3.679877 0.000003 -0.000005 -0.000003 13.196824 -0.000002 0.084604 -0.000002 0.000003 0.000002 -10.083068 0.000002 -0.000002 16.639232 16.781194 4.578847 -0.000001 47.042530 -0.000006 -2.987746 -0.000001 -0.000000 0.000007 38.766399 -0.000003 3.497513 20.159742 -17.717888 -0.000003 3.531220 0.000000 0.000001 0.000004 -0.000000 -0.000004 -0.000008 -13.829350 0.618942 -0.000000 -0.000002 0.000004 -0.000008 -4.034168 -0.000000 -0.000001 0.000001 10.083071 0.000021 -0.000001 9.380495 -7.044875 -4.255529 -0.000002 47.042530 -0.000005 2.119733 -0.000002 -0.000003 -0.000005 38.766426 -0.000005 8.233218 -7.705538 15.604829 -0.000001 3.531197 -0.000003 -0.000002 0.000000 0.000002 0.000002 -0.000002 -13.829341 4.671851 -0.000002 -0.000001 0.000002 -0.000001 -4.855063 -0.000001 -0.000003 0.000000 
-4.288127 22.264723 -93.932175 79.103590 -2.387277 -2.735485 0.000001 -12.181956 2.015556 16.010172 -0.433813 -2.731893 0.000001 -8.890282 1.567596 -0.095635 0.007592 -0.444847 -0.000000 -8.993100 0.786796 -1.100293 -1.086009 0.524127 0.000000 -9.027432 0.000002 1.099476 -1.242066 3.211722 -0.000002 -11.606724 -1.160662 -5.146412 -0.333010 -0.091566 -0.000000 -7.471576 -0.653675 -0.858501 -5.526362 -1.333542 0.000001 -7.386202 -1.302393 4.940992 -0.254242 -1.046920 0.000001 -9.728127 -0.000000 0.000000 -0.000001 0.000001 -0.000000 -8.290512 -5.270913 -0.000012 20.469563 7.334568 -19.261082 -0.000002 0.000006 0.221403 -56.217651 -76.845987 -30.691696 -0.000022 0.000005 -16.868079 -16.189949 -4.832473 -20.216938 -0.000012 0.000003 -1.600837 -10.544711 -8.682811 -4.948773 2.881328 -3.679886 0.000000 -0.000000 0.000004 -13.196860 -0.000007 0.084589 0.000008 0.000001 0.000001 0.000000 -8.290520 -5.270913 -0.000010 -12.480898 -6.943107 19.261072 -0.000018 0.000005 -3.937919 43.707087 78.508312 30.691698 -0.000010 0.000001 0.710939 28.925954 -0.343872 20.216928 -0.000015 0.000001 -0.455056 5.931057 4.395312 4.948794 2.881338 -3.679882 0.000007 0.000010 -0.000005 13.196827 0.000011 0.084590 0.000005 0.000007 -0.000005 -10.083066 0.000008 -0.000007 16.712559 17.170945 4.560743 -0.000005 47.042507 -0.000008 -3.070710 -0.000003 0.000000 0.000004 38.766441 -0.000009 3.523555 19.896654 -17.773003 -0.000001 3.531212 0.000002 0.000001 0.000005 0.000000 -0.000000 -0.000009 -13.829350 0.671509 -0.000001 -0.000001 -0.000006 0.000000 -4.034176 0.000000 0.000006 -0.000003 10.083067 0.000008 -0.000003 9.394869 -7.348107 -4.264419 -0.000000 47.042511 -0.000005 2.070736 -0.000001 0.000000 -0.000007 38.766407 -0.000003 8.240204 -7.285356 15.570804 -0.000001 3.531212 -0.000003 -0.000001 -0.000002 -0.000000 0.000001 -0.000001 -13.829351 4.681908 -0.000003 0.000002 0.000008 0.000007 -4.855062 -0.000001 -0.000006 -0.000000 
-4.291664 22.247093 -93.930466 79.072096 -2.480641 -2.773306 0.000001 -12.181965 2.015564 16.063372 -0.429831 -2.697553 -0.000001 -8.890314 1.567601 -0.093166 0.006539 -0.423445 0.000000 -8.993119 0.786795 -1.128215 -1.033008 0.520036 0.000001 -9.027445 0.000003 1.060450 -1.220073 3.148492 0.000002 -11.606691 -1.160671 -5.092204 -0.409263 -0.078112 -0.000001 -7.471562 -0.653680 -0.844659 -5.656251 -1.317496 -0.000001 -7.386186 -1.302385 4.975629 -0.269165 -1.004495 0.000000 -9.728088 -0.000001 0.000000 -0.000000 0.000000 0.000001 -8.290504 -5.270921 -0.000013 20.419641 7.434669 -19.261080 -0.000018 0.000004 0.519906 -56.682770 -75.843930 -30.691683 -0.000011 0.000003 -16.025734 -16.015120 -4.530905 -20.216917 -0.000014 0.000008 -1.618630 -10.269745 -9.006541 -4.948817 2.881330 -3.679876 0.000001 0.000007 -0.000003 -13.196856 -0.000003 0.084598 0.000005 0.000004 -0.000002 0.000001 -8.290508 -5.270919 -0.000008 -12.427566 -7.079144 19.261072 -0.000018 0.000003 -3.877429 44.046135 77.995050 30.691700 -0.000029 -0.000003 1.105279 28.908362 -0.534348 20.216936 -0.000005 -0.000004 -0.422976 6.095930 3.976766 4.948839 2.881324 -3.679881 0.000001 0.000000 -0.000008 13.196872 -0.000003 0.084583 -0.000000 0.000002 -0.000005 -10.083069 0.000005 0.000006 16.760577 17.633496 4.557664 -0.000001 47.042522 -0.000008 -3.176373 -0.000002 -0.000001 0.000008 38.766403 -0.000008 3.564923 19.541062 -17.830183 0.000001 3.531205 -0.000000 0.000001 -0.000000 -0.000000 0.000002 -0.000001 -13.829351 0.717821 0.000000 -0.000001 -0.000001 -0.000001 -4.034169 -0.000002 0.000005 -0.000001 10.083071 0.000015 0.000005 9.401318 -7.633699 -4.257342 -0.000000 47.042515 -0.000012 2.013423 0.000002 -0.000002 -0.000003 38.766426 -0.000007 8.284390 -6.885299 15.528129 -0.000005 3.531204 -0.000001 -0.000000 0.000002 -0.000000 0.000001 -0.000000 -13.829346 4.662917 0.000000 -0.000001 0.000001 -0.000000 -4.855062 -0.000001 -0.000004 0.000001 
-4.293244 22.233147 -93.932663 79.029271 -2.546197 -2.812520 -0.000000 -12.181948 2.015563 16.152533 -0.438074 -2.667836 -0.000000 -8.890297 1.567606 -0.083730 0.005706 -0.412809 -0.000001 -8.993096 0.786790 -1.175597 -1.006184 0.519211 -0.000000 -9.027457 0.000002 0.987512 -1.216049 3.124974 0.000000 -11.606707 -1.160677 -5.048334 -0.459200 -0.083247 -0.000000 -7.471581 -0.653684 -0.797976 -5.771257 -1.289889 -0.000001 -7.386157 -1.302380 5.007890 -0.282894 -0.961039 -0.000001 -9.728104 0.000003 0.000000 -0.000001 0.000000 0.000000 -8.290482 -5.270921 -0.000013 20.386902 7.540040 -19.261080 -0.000039 0.000002 0.802345 -56.940763 -74.932346 -30.691700 -0.000028 -0.000006 -15.031913 -15.899246 -4.207513 -20.216957 -0.000018 0.000004 -1.597534 -9.963757 -9.156597 -4.948825 2.881335 -3.679876 -0.000006 0.000005 -0.000003 -13.196869 -0.000007 0.084600 -0.000006 0.000002 -0.000000 0.000001 -8.290470 -5.270923 -0.000011 -12.387365 -7.219894 19.261080 -0.000024 0.000001 -3.875672 44.250364 77.575424 30.691708 -0.000015 -0.000005 1.656364 28.810742 -0.798393 20.216940 -0.000027 0.000002 -0.379764 6.107072 3.565078 4.948800 2.881330 -3.679883 0.000000 -0.000007 0.000000 13.196840 -0.000003 0.084584 0.000007 0.000003 0.000002 -10.083069 0.000023 0.000008 16.819457 18.005115 4.562576 0.000002 47.042526 -0.000007 -3.277222 -0.000001 0.000000 0.000007 38.766422 -0.000007 3.619822 19.253004 -17.862524 -0.000001 3.531205 0.000001 0.000000 -0.000000 -0.000001 -0.000003 0.000011 -13.829350 0.738736 0.000003 -0.000001 0.000000 -0.000000 -4.034170 -0.000001 0.000003 -0.000000 10.083071 0.000011 0.000004 9.462554 -7.804540 -4.238369 -0.000002 47.042538 -0.000006 1.897862 0.000002 0.000000 -0.000003 38.766441 -0.000001 8.410264 -6.567515 15.436549 -0.000001 3.531212 -0.000000 0.000001 0.000002 0.000000 0.000003 -0.000007 -13.829349 4.485976 -0.000003 -0.000000 0.000004 0.000014 -4.855061 -0.000001 -0.000000 -0.000001 
